<?xml version="1.0" encoding="utf-8"?>
<!-- Generator: Adobe Illustrator 28.0.0, SVG Export Plug-In . SVG Version: 6.00 Build 0)  -->
<svg version="1.1" id="Layer_1" xmlns="http://www.w3.org/2000/svg" xmlns:xlink="http://www.w3.org/1999/xlink" x="0px" y="0px"
	 viewBox="0 0 50 50" style="enable-background:new 0 0 50 50;" xml:space="preserve">
<style type="text/css">
	.st0{fill:#FFFFFF;stroke:#000000;stroke-miterlimit:10;}
</style>
<path class="st0" d="M45.9,18.2H4.1c-1.7,0-3.1-1-3.1-2.3v-2.6C1,12,2.4,11,4.1,11h41.7c1.7,0,3.2,1,3.2,2.3v2.6
	C49,17.1,47.6,18.2,45.9,18.2z"/>
<path class="st0" d="M45.7,30H4.1C2.4,30,1,29,1,27.7v-2.6c0-1.3,1.4-2.3,3.2-2.3h41.6c1.7,0,3.2,1,3.2,2.3v2.6
	C48.9,29,47.5,30,45.7,30z"/>
<path class="st0" d="M45.7,42.1H4.1c-1.7,0-3.2-1-3.2-2.3v-2.6c0-1.3,1.4-2.3,3.2-2.3h41.6c1.7,0,3.2,1,3.2,2.3v2.6
	C48.9,41.1,47.5,42.1,45.7,42.1z"/>
</svg>
