<?xml version="1.0" encoding="utf-8"?>
<svg version="1.1" id="Layer_1" xmlns="http://www.w3.org/2000/svg" xmlns:xlink="http://www.w3.org/1999/xlink" x="0px" y="0px"
	 viewBox="0 0 50 50" style="enable-background:new 0 0 50 50;" xml:space="preserve">
<style type="text/css">
</style>
<rect x="15.13" y="7.2" fill="#fff" class="st0" width="3.04" height="34.27"/>
<rect x="16.41" y="14.5" fill="#fff" class="st0" width="25.91" height="3.23"/>
<rect x="40.41" y="14.5" fill="#fff" class="st0" width="3.04" height="27.19"/>
<rect x="15.14" y="38.61" fill="#fff" class="st0" width="28.32" height="3.23"/>
<rect x="9.81" y="20.49" fill="#fff" class="st0" width="26.55" height="3.23"/>
<rect x="9.81" y="31.95" fill="#fff" class="st0" width="26.16" height="3.22"/>
<rect x="33.74" y="20.49" fill="#fff" class="st0" width="3.04" height="14.68"/>
<rect x="6.47" y="7.2" fill="#fff" class="st0" width="3.04" height="27.98"/>
<path class="st0" fill="#fff" d="M10.32,42.34H8.28c-1,0-1.81-0.79-1.81-1.77v-2c0-0.97,0.81-1.77,1.81-1.77h2.04c1,0,1.81,0.79,1.81,1.77v2
	C12.12,41.55,11.31,42.34,10.32,42.34z"/>
</svg>
