<svg version="1.1" id="Layer_1" xmlns="http://www.w3.org/2000/svg" x="0" y="0" viewBox="0 0 50 50" style="enable-background:new 0 0 50 50" xml:space="preserve"><style>.st0{stroke:#000;stroke-miterlimit:10}</style><path class="st0" d="M15.13 7.2h3.04v34.27h-3.04z"/><path class="st0" d="M16.41 14.5h25.91v3.23H16.41z"/><path class="st0" d="M40.41 14.5h3.04v27.19h-3.04z"/><path class="st0" d="M15.14 38.61h28.32v3.23H15.14zM9.81 20.49h26.55v3.23H9.81zM9.81 31.95h26.16v3.22H9.81z"/><path class="st0" d="M33.74 20.49h3.04v14.68h-3.04zM6.47 7.2h3.04v27.98H6.47zM10.32 42.34H8.28c-1 0-1.81-.79-1.81-1.77v-2c0-.97.81-1.77 1.81-1.77h2.04c1 0 1.81.79 1.81 1.77v2c-.01.98-.82 1.77-1.81 1.77z"/></svg>