<?xml version="1.0" encoding="utf-8"?>
<!-- Generator: Adobe Illustrator 28.0.0, SVG Export Plug-In . SVG Version: 6.00 Build 0)  -->
<svg version="1.1" id="Layer_1" xmlns="http://www.w3.org/2000/svg" xmlns:xlink="http://www.w3.org/1999/xlink" x="0px" y="0px"
	 viewBox="0 0 1000 200" style="enable-background:new 0 0 1000 200;" xml:space="preserve">
<style type="text/css">
	.st0{stroke:#000000;stroke-miterlimit:10;}
	.st1{font-family:'AgencyFB-Reg';}
	.st2{font-size:68.2836px;}
	.st3{font-size:45.5224px;}
</style>
<rect x="58.87" y="34.83" class="st0" width="11" height="116.82"/>
<rect x="63.48" y="59.72" class="st0" width="93.7" height="11"/>
<rect x="109.43" y="100.57" transform="matrix(-2.276420e-11 1 -1 -2.276420e-11 261.8463 -49.7094)" class="st0" width="92.69" height="11"/>
<rect x="58.87" y="141.94" transform="matrix(-1 4.458533e-12 -4.458533e-12 -1 220.1514 294.8709)" class="st0" width="102.4" height="11"/>
<rect x="39.61" y="80.15" class="st0" width="96" height="11"/>
<rect x="39.61" y="119.22" class="st0" width="94.6" height="10.98"/>
<rect x="106.63" y="99.69" transform="matrix(-1.836970e-16 1 -1 -1.836970e-16 236.8303 -26.47)" class="st0" width="50.04" height="10.98"/>
<rect x="27.55" y="34.83" class="st0" width="11" height="95.37"/>
<path class="st0" d="M41.45,154.63h-7.37c-3.6,0-6.53-2.92-6.53-6.53v-7.37c0-3.6,2.92-6.53,6.53-6.53h7.37
	c3.6,0,6.53,2.92,6.53,6.53v7.37C47.98,151.7,45.06,154.63,41.45,154.63z"/>
<text transform="matrix(2.1591 0 0 1 195.4362 93.2402)"><tspan x="0" y="0" class="st1 st2">Boburov</tspan><tspan x="0" y="54.63" class="st1 st3">Shukurillo</tspan></text>
</svg>
