<?xml version="1.0" encoding="utf-8"?>
<!-- Generator: Adobe Illustrator 28.0.0, SVG Export Plug-In . SVG Version: 6.00 Build 0)  -->
<svg version="1.1" id="Layer_1" xmlns="http://www.w3.org/2000/svg" xmlns:xlink="http://www.w3.org/1999/xlink" x="0px" y="0px"
	 viewBox="0 0 100 100" style="enable-background:new 0 0 100 100;" xml:space="preserve">
<style type="text/css">
	.st0{fill:#38B6FF;}
	.st1{fill:#333333;stroke:#E6E6E6;stroke-width:0.5;stroke-miterlimit:10;}
</style>
<path class="st0" d="M38.12,26.93l-0.32-5.87L1.29,38.49c-2.38,1.13-2.41,4.27-0.07,5.46l51.79,26.12c2.5,1.26,5.54-0.42,5.54-3.05
	V39.7l-7.27-4.18l-0.91,25.9l-40.1-19.96L38.12,28.1V26.93z"/>
<path class="st1" d="M61.36,60.86l0.32,5.87l36.52-17.44c2.38-1.13,2.41-4.27,0.07-5.46L46.47,17.71c-2.5-1.26-5.54,0.42-5.54,3.05
	v27.33l7.27,4.18l-0.38-27.55l41.39,21.61L61.36,59.68V60.86z"/>
<ellipse class="st1" cx="79.12" cy="21.68" rx="11.5" ry="9.83"/>
<ellipse class="st0" cx="20.32" cy="67.48" rx="11.5" ry="9.83"/>
</svg>
