<?xml version="1.0" encoding="utf-8"?>
<!-- Generator: Adobe Illustrator 28.0.0, SVG Export Plug-In . SVG Version: 6.00 Build 0)  -->
<svg version="1.1" id="Layer_1" xmlns="http://www.w3.org/2000/svg" xmlns:xlink="http://www.w3.org/1999/xlink" x="0px" y="0px"
	 viewBox="0 0 1000 200" style="enable-background:new 0 0 1000 200;" xml:space="preserve">
<style type="text/css">
	.st0{stroke:#000000;stroke-miterlimit:10;}
	.st1{font-family:'Antema-Bold';}
	.st2{font-size:68.2836px;}
	.st3{font-family:'AgencyFB-Bold';}
	.st4{font-size:45.5224px;}
</style>
<rect x="170.3" y="16.9" class="st0" width="15.9" height="146.3"/>
<rect x="176.9" y="48.1" class="st0" width="135.2" height="13.8"/>
<rect x="302.2" y="48.1" class="st0" width="15.9" height="116.1"/>
<rect x="170.3" y="151" class="st0" width="147.8" height="13.8"/>
<rect x="142.5" y="73.6" class="st0" width="138.5" height="13.8"/>
<rect x="142.5" y="122.6" class="st0" width="136.5" height="13.7"/>
<rect x="267.4" y="73.7" class="st0" width="15.8" height="62.7"/>
<rect x="125.1" y="16.9" class="st0" width="15.9" height="119.4"/>
<path class="st0" d="M145.1,166.9h-10.6c-5.2,0-9.4-3.7-9.4-8.2v-9.2c0-4.5,4.2-8.2,9.4-8.2h10.6c5.2,0,9.4,3.7,9.4,8.2v9.2
	C154.6,163.2,150.3,166.9,145.1,166.9z"/>
<text transform="matrix(2.1591 0 0 1 349.899 98.8103)" class="st1 st2">Boburov</text>
<text transform="matrix(2.1591 0 0 1 349.899 153.4402)" class="st3 st4">Shukurillo</text>
</svg>
